<svg width="106" height="88" fill="none" xmlns="http://www.w3.org/2000/svg" class="h-auto w-19"><path d="M64.693 17.56a16.318 16.318 0 0 0-20.542-1.973 16.216 16.216 0 0 0-6.514 8.78 16.156 16.156 0 0 0 .552 10.904 16.233 16.233 0 0 0 7.368 8.082A16.325 16.325 0 0 0 56.4 44.947a16.282 16.282 0 0 0 9.397-5.617 16.174 16.174 0 0 0 3.69-10.28 16.28 16.28 0 0 0-4.793-11.49ZM63.2 39.032a14.303 14.303 0 0 1-10.065 4.136c-3.771 0-7.39-1.487-10.064-4.136a14.162 14.162 0 0 1-3.893-7.26 14.13 14.13 0 0 1 .81-8.19 14.19 14.19 0 0 1 5.242-6.362 14.268 14.268 0 0 1 15.81 0 14.19 14.19 0 0 1 5.242 6.362c1.077 2.59 1.36 5.44.81 8.19a14.162 14.162 0 0 1-3.892 7.26Z" fill="#080808"></path><path d="M51.353 40.376a10.623 10.623 0 0 1-4.818-2.048 12.974 12.974 0 0 1-4.062-5.728 16.738 16.738 0 0 1-.701-2.346c-.065-.292-.11-.53-.135-.689 0-.08-.025-.144-.03-.183v-.055l-1.274.149c.296 2 .943 3.931 1.911 5.708a13.36 13.36 0 0 0 3.485 4.175 12.081 12.081 0 0 0 6.177 2.405l.706.075v-24.85h-1.279l.02 23.387ZM65.22 29.689v-1.28H55.006V17.005h-1.284v24.825l.701-.065a12.974 12.974 0 0 0 4.704-1.611 13.55 13.55 0 0 0 3.783-3.135 15.045 15.045 0 0 0 2.922-5.663l-1.235-.347a13.866 13.866 0 0 1-2.667 5.167 12.597 12.597 0 0 1-6.924 4.17V29.69H65.22Z" fill="#080808"></path><path d="M2.006 87.114H.35V71.969h1.657v15.145Zm0-19.618a1.126 1.126 0 0 1 .354.823 1.107 1.107 0 0 1-.354.834 1.17 1.17 0 0 1-1.277.253 1.17 1.17 0 0 1-.38-.254A1.106 1.106 0 0 1 0 68.32a1.163 1.163 0 0 1 .722-1.07 1.173 1.173 0 0 1 1.27.247M6.984 77.374c-.004.408.02.816.075 1.22.04.324.138.638.288.928.148.28.38.507.662.65a2.997 2.997 0 0 0 2.34 0 1.52 1.52 0 0 0 .662-.65c.15-.29.248-.604.289-.928a8.61 8.61 0 0 0 .074-1.22V71.97h1.658v5.594a5.148 5.148 0 0 1-.901 3.218c-.604.767-1.588 1.152-2.952 1.156-1.369 0-2.35-.387-2.952-1.156a5.118 5.118 0 0 1-.9-3.218v-5.594h1.657v5.406ZM17.501 73.025h.04c.245-.407.587-.747.996-.991.407-.234.869-.355 1.338-.352a3.036 3.036 0 0 1 2.693 1.611 2.732 2.732 0 0 1 1.21-1.195 3.62 3.62 0 0 1 1.707-.416 3.16 3.16 0 0 1 1.493.332c.396.208.727.518.961.897.243.397.411.834.498 1.29.098.51.146 1.028.144 1.547v5.901h-1.637v-5.614a9.264 9.264 0 0 0-.05-1.06 3.04 3.04 0 0 0-.22-.849 1.394 1.394 0 0 0-.537-.65 1.736 1.736 0 0 0-.97-.247 1.93 1.93 0 0 0-1.11.287 1.81 1.81 0 0 0-.642.774 3.654 3.654 0 0 0-.29 1.031 9.017 9.017 0 0 0-.074 1.21v5.138H21.42v-5.51a9.736 9.736 0 0 0-.05-1.04 3.305 3.305 0 0 0-.23-.918 1.588 1.588 0 0 0-.537-.704 1.497 1.497 0 0 0-.92-.268c-.4-.016-.796.093-1.13.312a1.83 1.83 0 0 0-.662.813 4.056 4.056 0 0 0-.29 1.072 9.504 9.504 0 0 0-.074 1.23v5.013h-1.682v-9.7H17.5v1.056ZM35.116 73.507a2.92 2.92 0 0 0-.995.773 3.602 3.602 0 0 0-.871 2.435 4.062 4.062 0 0 0 .86 2.613 2.815 2.815 0 0 0 2.33 1.081 2.917 2.917 0 0 0 2.39-1.06c.584-.745.89-1.67.86-2.614a3.632 3.632 0 0 0-.89-2.504 3.264 3.264 0 0 0-3.674-.724h-.01Zm-1.782-.154h.03c.39-.525.902-.945 1.494-1.225a4.26 4.26 0 0 1 1.886-.427 4.393 4.393 0 0 1 3.385 1.548c.412.488.731 1.048.94 1.651.224.622.337 1.278.334 1.939a5.93 5.93 0 0 1-.319 1.959 5.003 5.003 0 0 1-.935 1.641c-.41.475-.92.853-1.494 1.106-.613.266-1.277.4-1.946.392a4.343 4.343 0 0 1-1.876-.422 3.87 3.87 0 0 1-1.469-1.205h-.04v6.809h-1.657v-15.15h1.657v1.399l.01-.015Z" fill="#979797"></path><path d="M46.475 81.669h-1.658V73.5h-1.015v-1.527h1.015v-3.491h1.658v3.491h1.737v1.527h-1.737v8.168ZM52.314 73.025h.04c.27-.374.594-.708.96-.991a1.997 1.997 0 0 1 1.195-.323 3.084 3.084 0 0 1 1.493.457l-.787 1.487-.124-.08a2.25 2.25 0 0 0-.433-.267 1.067 1.067 0 0 0-.433-.084 1.496 1.496 0 0 0-1.04.352c-.269.247-.468.56-.578.907-.121.36-.201.733-.239 1.111a13.2 13.2 0 0 0-.05 1.22v4.85h-1.657v-9.695h1.658v1.056h-.005ZM60.417 73.507a2.95 2.95 0 0 0-.996.773 3.602 3.602 0 0 0-.87 2.435 4.086 4.086 0 0 0 .855 2.613 2.822 2.822 0 0 0 2.33 1.081 2.921 2.921 0 0 0 2.394-1.06c.585-.745.89-1.67.861-2.614a3.632 3.632 0 0 0-.89-2.504 3.269 3.269 0 0 0-3.68-.724h-.004Zm6.147 8.162h-1.657V80.31h-.04a4.037 4.037 0 0 1-3.355 1.612 4.493 4.493 0 0 1-1.906-.402 4.235 4.235 0 0 1-1.494-1.126 5.329 5.329 0 0 1-.945-1.641 5.673 5.673 0 0 1-.329-1.929 6.019 6.019 0 0 1 .319-1.984c.205-.6.52-1.156.93-1.641a4.216 4.216 0 0 1 1.494-1.11 4.493 4.493 0 0 1 1.946-.407 4.062 4.062 0 0 1 1.861.436c.586.284 1.097.7 1.494 1.215h.04v-1.384h1.657v9.7l-.015.02ZM72.367 73.507a3.014 3.014 0 0 0-.995.773 3.602 3.602 0 0 0-.871 2.435c-.024.944.28 1.867.86 2.613a2.817 2.817 0 0 0 2.32 1.081 2.915 2.915 0 0 0 2.39-1.06c.585-.745.89-1.67.86-2.614a3.607 3.607 0 0 0-.89-2.504 3.264 3.264 0 0 0-3.674-.724Zm4.48 6.818h-.04a3.918 3.918 0 0 1-1.468 1.195 4.319 4.319 0 0 1-1.887.417 4.494 4.494 0 0 1-1.906-.402 4.278 4.278 0 0 1-1.493-1.126 5.215 5.215 0 0 1-.94-1.641 5.555 5.555 0 0 1-.334-1.93 5.896 5.896 0 0 1 .323-1.983 4.996 4.996 0 0 1 .93-1.641 4.24 4.24 0 0 1 1.494-1.11 4.527 4.527 0 0 1 1.946-.407 4.139 4.139 0 0 1 1.877.436 3.978 3.978 0 0 1 1.458 1.215h.04V64.65h1.658v17.019h-1.658V80.31v.015ZM83.019 81.669h-1.657v-9.7h1.657v9.7Zm0-14.173a1.125 1.125 0 0 1 .353.823 1.108 1.108 0 0 1-.353.834 1.17 1.17 0 0 1-1.657 0 1.105 1.105 0 0 1-.349-.834 1.163 1.163 0 0 1 .721-1.07 1.173 1.173 0 0 1 1.27.247M87.927 73.15h.04a3.277 3.277 0 0 1 2.778-1.449 3.63 3.63 0 0 1 1.627.333c.416.2.77.51 1.02.897.252.403.422.851.499 1.32.099.547.147 1.104.144 1.66v5.758h-1.658v-5.455c.005-.4-.016-.799-.064-1.195a2.914 2.914 0 0 0-.26-.908c-.131-.274-.35-.499-.621-.64a2.301 2.301 0 0 0-1.105-.227 2.262 2.262 0 0 0-1.304.342c-.324.217-.58.522-.737.877a3.98 3.98 0 0 0-.309 1.166c-.053.482-.078.968-.074 1.453v4.602h-1.658v-9.715h1.658v1.18h.024ZM99.848 73.507a2.92 2.92 0 0 0-.995.773 3.603 3.603 0 0 0-.871 2.435c-.024.944.28 1.867.86 2.613a2.816 2.816 0 0 0 2.33 1.081 2.913 2.913 0 0 0 2.389-1.06c.585-.745.89-1.67.862-2.614a3.634 3.634 0 0 0-.891-2.504 3.017 3.017 0 0 0-2.385-.992 2.993 2.993 0 0 0-1.289.277l-.01-.01Zm6.147 7.696c.015.805-.04 1.61-.164 2.405a4.324 4.324 0 0 1-2.489 3.04 5.189 5.189 0 0 1-2.115.436 4.854 4.854 0 0 1-3.404-1.22 4.304 4.304 0 0 1-1.38-3.238h1.658a2.823 2.823 0 0 0 .891 2.127c.605.546 1.4.834 2.215.804a3.435 3.435 0 0 0 1.553-.313c.398-.189.734-.489.966-.862.233-.395.393-.829.473-1.28a8.794 8.794 0 0 0 .134-1.612v-1.18h-.04a4.08 4.08 0 0 1-1.493 1.175 4.25 4.25 0 0 1-1.892.437 4.371 4.371 0 0 1-3.374-1.517 4.954 4.954 0 0 1-.946-1.632 6.003 6.003 0 0 1 0-3.888 5.246 5.246 0 0 1 .956-1.651 4.425 4.425 0 0 1 3.414-1.547 3.993 3.993 0 0 1 1.867.436c.569.29 1.064.706 1.448 1.215h.04v-1.384h1.658v9.224l.024.025Z" fill="#080808"></path><path d="M80.914 29.63h-1.946a25.633 25.633 0 0 1-5.825 16.313 25.806 25.806 0 0 1-14.891 8.927 25.873 25.873 0 0 1-17.195-2.514 25.727 25.727 0 0 1-11.69-12.813 25.603 25.603 0 0 1-.874-17.293A25.7 25.7 0 0 1 38.831 8.33 25.862 25.862 0 0 1 71.402 11.5a25.49 25.49 0 0 1 5.605 8.31 25.413 25.413 0 0 1 1.96 9.82h3.888a29.502 29.502 0 0 0-6.702-18.776A29.7 29.7 0 0 0 59.015.578a29.778 29.778 0 0 0-19.79 2.892A29.61 29.61 0 0 0 25.77 18.216a29.467 29.467 0 0 0-1.009 19.902 29.579 29.579 0 0 0 11.896 16.02 29.766 29.766 0 0 0 37.488-3.641 29.378 29.378 0 0 0 6.45-9.566 29.288 29.288 0 0 0 2.26-11.301h-1.94Z" fill="#EE322F"></path></svg>